:FULLY-SPECIFIED
:FORCE-ALL-JOINTS-BE-3DOF
:DEGREES
306
root -1.30244 15.4192 -36.2103 27.5506 70.7618 23.0961
lfemur -25.4794 16.2633 -21.221
ltibia 59.6876 -0 0
lfoot -28.0375 29.238 -0.00385221
ltoes -7.54086 0 0
rfemur -50.1954 -4.93118 11.7153
rtibia 94.6962 -0 0
rfoot 4.67856 -6.83553 0.0141168
rtoes -19.4781 0 0
lowerback 16.5003 -2.18824 -10.0435
upperback -1.34427 -4.71112 1.93464
thorax -9.80514 -1.63957 8.98798
lowerneck -7.13672 3.47695 0.920646
upperneck 2.97766 4.80794 -4.69713
head 2.33411 2.27651 -1.4586
lclavicle 3.32099e-14 -1.43273e-14 1.57391e-30
lhumerus 9.20522 -10.2377 73.7702
lradius 66.7561 -0 0
lwrist -25.7556 0 0
lhand -25.0076 37.2383 0.0588762
lfingers 7.12502 -0 0
lthumb 9.84329 71.1743 -0.0852886
rclavicle -2.47839e-14 1.22811e-14 2.48082e-31
rhumerus -53.793 3.25354 -84.6507
rradius 94.7638 -0 0
rwrist -47.1826 0 0
rhand -10.0315 -41.3476 0.00417729
rfingers 7.12502 -0 0
rthumb 28.9544 -35.437 -0.00292208
307
root -1.16394 15.4083 -36.1978 28.7552 70.7487 24.8541
lfemur -24.0048 15.4868 -20.8231
ltibia 58.528 -0 0
lfoot -28.0093 29.0412 -0.00394914
ltoes -7.7512 0 0
rfemur -50.7203 -4.44888 11.4547
rtibia 96.1773 -0 0
rfoot 4.77773 -6.53657 0.0305482
rtoes -18.1411 0 0
lowerback 16.8407 -1.66903 -10.5655
upperback -1.21366 -4.18645 1.60323
thorax -9.96337 -1.36042 8.82257
lowerneck -7.01516 3.0726 0.630953
upperneck 2.93353 4.28129 -4.49596
head 2.26605 2.01873 -1.36775
lclavicle 2.78119e-14 -1.39485e-14 1.52e-30
lhumerus 8.43724 -12.981 75.2684
lradius 63.4367 -0 0
lwrist -27.733 0 0
lhand -25.1635 36.3904 0.0515509
lfingers 7.12502 -0 0
lthumb 9.57219 71.5627 -0.0941011
rclavicle -2.41266e-14 1.16346e-14 3.67016e-31
rhumerus -50.8417 3.85469 -84.4691
rradius 94.2562 -0 0
rwrist -46.6947 0 0
rhand -10.1959 -41.4529 0.0160658
rfingers 7.12502 -0 0
rthumb 28.9476 -34.8878 -0.00173302
308
root -1.01821 15.3922 -36.1866 28.9531 70.8167 25.9038
lfemur -22.4362 14.6437 -20.4213
ltibia 57.4344 -0 0
lfoot -27.9811 28.8432 -0.00394914
ltoes -7.99738 0 0
rfemur -51.1481 -4.05884 11.2399
rtibia 97.3882 -0 0
rfoot 4.91169 -6.1331 0.0519004
rtoes -16.7708 0 0
lowerback 17.4245 -1.20823 -10.8434
upperback -1.00099 -3.70557 1.36184
thorax -10.1664 -1.1124 8.63466
lowerneck -6.81881 2.77332 0.253512
upperneck 2.88687 3.89805 -4.22765
head 2.18604 1.83389 -1.2339
lclavicle 2.25254e-14 -1.35775e-14 1.43263e-30
lhumerus 7.54782 -15.8176 76.8898
lradius 60.2421 -0 0
lwrist -29.3422 0 0
lhand -25.3085 35.6012 0.0426604
lfingers 7.12502 -0 0
lthumb 9.29044 71.9663 -0.101311
rclavicle -2.3356e-14 1.08766e-14 4.97016e-31
rhumerus -47.3824 4.54525 -84.2174
rradius 93.7006 -0 0
rwrist -46.2265 0 0
rhand -10.459 -41.6215 0.0344577
rfingers 7.12502 -0 0
rthumb 28.9425 -34.479 -0.000805905
309
root -0.871526 15.3772 -36.1717 29.1304 71.0279 27.1509
lfemur -20.7961 13.7442 -20.0254
ltibia 56.42 -0 0
lfoot -27.9529 28.6464 -0.00385221
ltoes -8.2754 0 0
rfemur -51.4672 -3.76964 11.0783
rtibia 98.2948 -0 0
rfoot 5.07772 -5.63358 0.0770244
rtoes -15.3806 0 0
lowerback 18.1589 -0.700861 -11.1603
upperback -0.71245 -3.18563 1.13369
thorax -10.3731 -0.846022 8.47119
lowerneck -6.58612 2.42676 -0.0720245
upperneck 2.87965 3.44037 -3.84381
head 2.11243 1.61478 -1.07513
lclavicle 1.74062e-14 -1.32183e-14 1.31539e-30
lhumerus 6.53036 -18.7087 78.6324
lradius 57.2036 -0 0
lwrist -30.5423 0 0
lhand -25.4395 34.8872 0.0328987
lfingers 7.12502 -0 0
lthumb 9.00068 72.3813 -0.106655
rclavicle -2.24839e-14 1.00188e-14 6.3183e-31
rhumerus -43.4676 5.30528 -83.883
rradius 93.1047 -0 0
rwrist -45.7838 0 0
rhand -10.8118 -41.8477 0.0579033
rfingers 7.12502 -0 0
rthumb 28.9394 -34.2239 -0.000209133
310
root -0.721835 15.3617 -36.1538 28.9953 71.4231 28.3115
lfemur -19.1064 12.799 -19.6439
ltibia 55.498 -0 0
lfoot -27.9252 28.4528 -0.0036626
ltoes -8.5813 0 0
rfemur -51.6667 -3.58962 10.9766
rtibia 98.8636 -0 0
rfoot 5.27293 -5.04699 0.104675
rtoes -13.9837 0 0
lowerback 19.1104 -0.217413 -11.4631
upperback -0.333249 -2.70799 1.00557
thorax -10.5823 -0.600542 8.42082
lowerneck -6.52859 2.08233 -0.289046
upperneck 3.02378 2.98419 -3.48775
head 2.12763 1.39236 -0.942162
lclavicle 1.25099e-14 -1.28747e-14 1.17323e-30
lhumerus 5.37994 -21.6161 80.4939
lradius 54.3524 -0 0
lwrist -31.2923 0 0
lhand -25.5535 34.2657 0.0230712
lfingers 7.12502 -0 0
lthumb 8.70558 72.804 -0.10994
rclavicle -2.15224e-14 9.07304e-15 7.65344e-31
rhumerus -39.1494 6.113 -83.4554
rradius 92.4769 -0 0
rwrist -45.372 0 0
rhand -11.2455 -42.1258 0.0848047
rfingers 7.12502 -0 0
rthumb 28.9383 -34.1359 0
